<?xml version="1.0" encoding="utf-8"?>
<!-- Generator: Adobe Illustrator 15.1.0, SVG Export Plug-In . SVG Version: 6.00 Build 0)  -->
<!DOCTYPE svg PUBLIC "-//W3C//DTD SVG 1.1//EN" "http://www.w3.org/Graphics/SVG/1.1/DTD/svg11.dtd">
<svg version="1.1" id="レイヤー_1" xmlns="http://www.w3.org/2000/svg" xmlns:xlink="http://www.w3.org/1999/xlink" x="0px"
	 y="0px" width="595.28px" height="66.799px" viewBox="0 0 595.28 66.799" enable-background="new 0 0 595.28 66.799"
	 xml:space="preserve">
<g>
	<path fill="#FFFFFF" stroke="#FFFFFF" stroke-miterlimit="10" d="M259.887,5.42v2.993h-5.589v30.276c0,2.244-0.572,3.3-2.2,3.829
		c-1.716,0.528-4.797,0.528-9.153,0.528c-0.22-0.88-0.836-2.332-1.276-3.212c2.024,0.088,4.005,0.132,5.589,0.132
		c3.829,0,4.005,0,4.005-1.32V8.413h-31.069V5.42H259.887z M242.944,31.78h-15.622v3.653h-2.905V15.278h18.527V31.78z
		 M239.996,18.094h-12.674v10.87h12.674V18.094z"/>
	<path fill="#FFFFFF" stroke="#FFFFFF" stroke-miterlimit="10" d="M272.158,17.654c0,3.433-0.088,6.865-0.572,10.209
		c1.232,1.541,4.401,6.117,5.149,7.261l-2.024,2.068c-0.748-1.408-2.332-4.005-3.696-6.073c-0.924,4.356-2.685,8.449-5.765,12.102
		c-0.44-0.616-1.364-1.54-1.98-1.937c5.633-6.777,6.249-15.314,6.249-23.631V2.252l3.521,0.22c-0.044,0.264-0.308,0.484-0.88,0.572
		V17.654z M263.313,22.099c1.672-2.376,2.42-6.733,2.508-10.738l2.068,0.308c-0.088,4.225-0.748,8.934-2.685,11.662L263.313,22.099z
		 M278.319,10.173c-0.088,0.264-0.396,0.396-0.88,0.396c-0.792,2.596-2.288,6.557-3.477,8.978l-1.716-0.792
		c1.1-2.552,2.464-6.777,3.168-9.681L278.319,10.173z M282.543,33.277c-1.056,3.608-2.684,7.525-5.588,9.901l-2.201-1.496
		c2.729-2.112,4.533-5.809,5.457-9.198L282.543,33.277z M304.195,14.442h-6.205c1.056,6.425,3.213,12.41,6.777,15.138
		c-0.616,0.528-1.541,1.496-1.937,2.2c-2.816-2.42-4.708-6.557-5.941-11.397c-1.056,4.093-3.3,8.009-7.965,11.31
		c-0.396-0.572-1.232-1.496-1.849-1.892c6.205-4.401,7.745-9.945,8.053-15.358h-4.973V14.09c-2.068,8.537-5.941,14.434-10.958,17.69
		c-0.352-0.66-1.056-1.54-1.672-2.068c2.508-1.497,4.753-3.873,6.601-6.997c-1.1-1.101-2.904-2.464-4.445-3.389l1.32-1.584
		c1.408,0.792,3.081,1.98,4.181,2.948c0.572-1.188,1.1-2.42,1.54-3.741c-1.144-0.924-2.948-2.024-4.444-2.772l1.1-1.804
		c1.364,0.616,2.904,1.452,4.048,2.289c0.44-1.628,0.836-3.345,1.101-5.149h-5.061c-1.408,4.269-3.344,8.141-5.633,10.87
		c-0.44-0.484-1.364-1.232-1.936-1.628c3.168-3.608,5.589-9.989,6.909-16.59l3.256,0.748c-0.088,0.352-0.396,0.528-0.924,0.528
		c-0.264,1.232-0.572,2.464-0.924,3.652h5.281l0.484-0.088l1.54,0.484c-0.044,0.264-0.176,0.396-0.264,0.528
		c-0.176,1.32-0.396,2.64-0.616,3.873h4.576V2.296l3.389,0.22c-0.044,0.308-0.264,0.528-0.836,0.572v8.801h6.425V14.442z
		 M286.02,42.518c0.044-2.289-0.396-5.853-1.012-8.625l2.42-0.352c0.748,2.729,1.188,6.293,1.188,8.582L286.02,42.518z
		 M293.897,42.606c-0.352-2.376-1.584-5.941-2.905-8.669l2.333-0.704c1.408,2.684,2.685,6.292,3.125,8.625L293.897,42.606z
		 M302.303,43.222c-0.88-2.597-3.125-6.777-5.237-9.857l2.332-0.924c2.201,3.037,4.489,7.129,5.413,9.726L302.303,43.222z
		 M300.938,3.308c1.32,2.068,2.64,4.753,3.168,6.513l-2.156,0.924c-0.484-1.849-1.76-4.577-2.993-6.645L300.938,3.308z"/>
	<path fill="#FFFFFF" stroke="#FFFFFF" stroke-miterlimit="10" d="M342.43,38.689c-3.873,0.704-9.021,1.012-13.51,1.012
		c-3.608,0-6.777-0.22-8.493-0.572c-5.325-1.188-7.613-4.533-7.613-8.405c0-3.3,1.848-6.733,4.488-9.373l2.553,1.32
		c-2.465,2.508-3.873,5.369-3.873,7.789c0,2.596,1.716,4.885,5.501,5.765c1.496,0.308,4.049,0.484,7.041,0.484
		c4.269,0,9.461-0.352,13.686-1.188L342.43,38.689z M322.671,16.51c2.288-1.804,5.413-3.917,7.789-5.104v-0.044
		c-3.345,0.396-11.002,0.528-15.887,0.528c0-0.836,0-2.289-0.044-3.081h2.376c5.633,0,17.163-0.088,22.708-1.408l0.352,3.212
		c-1.453,0.22-2.508,0.44-4.621,1.32c-2.465,1.012-6.733,3.389-10.166,6.161L322.671,16.51z M342.386,22.759
		c-1.276-1.937-4.005-4.577-5.897-5.985l1.452-1.364c2.112,1.54,4.665,4.092,6.029,5.941L342.386,22.759z M347.007,18.579
		c-1.232-1.76-3.829-4.401-5.897-5.941l1.452-1.408c2.156,1.628,4.708,4.137,6.029,5.985L347.007,18.579z"/>
	<path fill="#FFFFFF" stroke="#FFFFFF" stroke-miterlimit="10" d="M388.146,14.97c-0.132,0.484-0.616,0.792-1.276,0.792
		c-0.483,3.036-1.188,6.249-1.936,8.977c2.376,1.012,4.885,2.157,7.393,3.433l-1.408,2.949c-2.376-1.188-4.664-2.333-6.909-3.301
		c-2.112,6.337-5.148,10.958-9.813,14.038c-0.616-0.616-1.716-1.364-2.508-1.848c4.62-3.037,7.481-7.173,9.505-13.466
		c-4.444-1.76-8.493-2.992-11.75-3.256c-3.036,11.09-5.765,13.994-11.045,13.994s-6.293-4.225-6.293-6.909
		c0-6.821,7.085-9.989,14.962-10.033c0.924-3.521,1.76-7.833,2.376-12.41c-2.068,0.176-9.109,0.66-12.454,0.88
		c-0.176,0.308-0.528,0.528-0.924,0.616l-0.396-3.564c3.785-0.132,11.97-0.66,14.61-0.924c0.484-0.044,0.66-0.264,0.968-0.484
		l2.729,1.628c-0.22,0.352-0.572,0.528-1.1,0.704c-0.704,4.885-1.76,9.946-2.729,13.73c3.389,0.264,7.437,1.453,11.838,3.125
		c0.748-2.64,1.408-6.029,1.892-9.593L388.146,14.97z M366.363,23.111c-6.337,0.088-11.398,2.596-11.398,7.261
		c0,2.464,1.188,4.137,3.257,4.137C361.435,34.509,363.547,33.409,366.363,23.111z"/>
</g>
</svg>
